<?xml version="1.0" encoding="UTF-8" standalone="no"?>
<!DOCTYPE svg PUBLIC "-//W3C//DTD SVG 1.1//EN" "http://www.w3.org/Graphics/SVG/1.1/DTD/svg11.dtd">
<svg width="100%" height="100%" viewBox="0 0 1024 338" version="1.1" xmlns="http://www.w3.org/2000/svg" xmlns:xlink="http://www.w3.org/1999/xlink" xml:space="preserve" xmlns:serif="http://www.serif.com/" style="fill-rule:evenodd;clip-rule:evenodd;stroke-linejoin:round;stroke-miterlimit:2;">
    <g transform="matrix(1,0,0,1,0,-4125)">
        <g id="Artboard7" transform="matrix(1,0,0,0.330078,0,2877.231914)">
            <rect x="0" y="3780.22" width="1024" height="1024" style="fill:none;"/>
            <g transform="matrix(2.667712,0,0,2.943026,-432.539185,2932.975164)">
                <path d="M212.155,369.081L226.311,369.081L243.097,453.619L270.724,369.081L286.721,369.081L274.092,565.614L257.147,565.614L265.093,442.058L242.202,512.724L237.993,512.724L224.416,441.625L216.47,565.614L199.526,565.614L212.155,369.081Z" style="fill:white;fill-rule:nonzero;"/>
            </g>
            <g transform="matrix(1,0,0,3.029586,0,2735.013372)">
                <path d="M498.568,602.141C490.444,607.149 481.363,611.18 471.326,614.235C460.564,617.511 448.678,619.148 435.67,619.148C421.538,619.148 408.646,616.856 396.995,612.27C385.343,607.684 375.353,601.343 367.023,593.248C358.694,585.153 352.26,575.537 347.721,564.4C343.182,553.263 340.913,541.143 340.913,528.041C340.913,520.367 341.965,512.365 344.071,504.036C346.177,495.707 349.359,487.518 353.617,479.469C357.875,471.421 363.21,463.747 369.62,456.447C376.031,449.147 383.518,442.736 392.081,437.215C400.645,431.693 410.331,427.295 421.14,424.019C431.95,420.743 443.859,419.106 456.867,419.106C471.092,419.106 484.007,421.375 495.612,425.914C507.217,430.453 517.184,436.77 525.513,444.866C533.843,452.961 540.277,462.577 544.816,473.714C549.355,484.851 551.624,496.97 551.624,510.073C551.624,517.747 550.571,525.748 548.466,534.078C546.36,542.407 543.155,550.619 538.85,558.714C536.28,563.546 534.048,567.49 531.303,571.436L547.595,588.958L514.726,619.519L498.568,602.141ZM501.175,538.365C501.385,537.875 501.589,537.382 501.789,536.885C505.065,528.743 506.702,520.18 506.702,511.196C506.702,503.896 505.369,497.134 502.702,490.911C500.034,484.687 496.314,479.259 491.541,474.626C486.768,469.994 481.036,466.367 474.345,463.747C467.653,461.126 460.283,459.816 452.235,459.816C442.408,459.816 433.424,461.618 425.281,465.221C417.139,468.824 410.144,473.714 404.295,479.891C398.445,486.067 393.906,493.227 390.678,501.369C387.449,509.511 385.834,518.074 385.834,527.059C385.834,534.265 387.168,541.003 389.835,547.273C392.503,553.544 396.223,558.995 400.996,563.628C405.769,568.26 411.501,571.887 418.192,574.507C424.884,577.128 432.254,578.438 440.302,578.438C450.035,578.438 458.973,576.636 467.115,573.033L467.525,572.85L462.191,533.13L501.175,538.365Z" style="fill:white;"/>
                <g transform="matrix(0.933333,0,0,0.933333,94.266667,225)">
                    <circle cx="379" cy="315" r="15" style="fill:rgb(191,26,26);"/>
                </g>
            </g>
            <g transform="matrix(2.667712,0,0,2.943026,-432.539185,2932.975164)">
                <path d="M398.964,570.528C394.544,570.528 390.781,569.323 387.677,566.915C384.572,564.506 381.985,561.399 379.915,557.594C377.845,553.788 376.231,549.453 375.074,544.588C373.916,539.723 373.074,534.858 372.548,529.993C372.021,525.127 371.741,520.479 371.706,516.047C371.671,511.616 371.758,507.858 371.969,504.776L388.597,504.776C388.422,507.377 388.413,510.243 388.571,513.374C388.729,516.505 389.211,519.467 390.018,522.261C390.825,525.055 392.053,527.391 393.702,529.27C395.351,531.149 397.596,532.088 400.437,532.088C403.49,532.088 405.954,531.245 407.831,529.559C409.708,527.873 411.155,525.802 412.172,523.345C413.19,520.888 413.874,518.239 414.224,515.397C414.575,512.555 414.751,509.93 414.751,507.521C414.751,504.631 414.461,502.03 413.882,499.718C413.304,497.406 412.47,495.31 411.383,493.432C410.295,491.553 408.953,489.819 407.357,488.229C405.761,486.64 403.946,485.074 401.911,483.533C399.28,481.51 396.587,479.197 393.833,476.596C391.079,473.995 388.589,470.623 386.361,466.481C384.133,462.338 382.3,457.232 380.862,451.162C379.424,445.093 378.704,437.579 378.704,428.619C378.704,425.247 378.862,421.297 379.178,416.769C379.494,412.241 380.064,407.593 380.888,402.824C381.713,398.055 382.844,393.359 384.282,388.734C385.721,384.11 387.58,379.967 389.86,376.306C392.141,372.646 394.877,369.707 398.069,367.491C401.262,365.276 405.033,364.168 409.383,364.168C414.821,364.168 419.267,365.854 422.723,369.225C426.178,372.597 428.845,377.149 430.722,382.882C432.598,388.614 433.782,395.213 434.274,402.679C434.765,410.146 434.747,417.925 434.221,426.018L417.803,426.018C417.908,424.284 417.917,422.164 417.829,419.659C417.741,417.155 417.373,414.746 416.724,412.434C416.075,410.122 415.031,408.147 413.593,406.509C412.155,404.871 410.12,404.052 407.489,404.052C404.682,404.052 402.49,404.847 400.911,406.437C399.332,408.026 398.148,409.929 397.359,412.145C396.57,414.361 396.079,416.576 395.886,418.792C395.693,421.008 395.596,422.79 395.596,424.139C395.596,426.837 395.886,429.269 396.464,431.437C397.043,433.605 397.929,435.58 399.122,437.362C400.315,439.144 401.823,440.806 403.647,442.347C405.472,443.889 407.647,445.478 410.173,447.116C413.26,449.043 416.136,451.452 418.803,454.342C421.469,457.232 423.775,460.845 425.722,465.18C427.669,469.515 429.195,474.693 430.301,480.715C431.406,486.736 431.958,493.841 431.958,502.03C431.958,506.751 431.739,511.712 431.3,516.914C430.862,522.117 430.125,527.271 429.09,532.377C428.055,537.483 426.705,542.324 425.038,546.9C423.372,551.476 421.32,555.523 418.882,559.039C416.443,562.555 413.575,565.349 410.278,567.421C406.98,569.492 403.209,570.528 398.964,570.528Z" style="fill:white;fill-rule:nonzero;"/>
            </g>
            <g transform="matrix(2.667712,0,0,2.943026,-432.539185,2932.975164)">
                <path d="M450.902,369.081L479.897,369.081C484.984,369.081 489.544,370.936 493.579,374.645C497.613,378.354 501.042,383.604 503.866,390.396C506.69,397.188 508.848,405.401 510.339,415.035C511.83,424.669 512.575,435.459 512.575,447.405C512.575,455.401 512.225,463.903 511.523,472.911C510.821,481.919 509.707,490.782 508.181,499.501C506.655,508.22 504.708,516.577 502.34,524.573C499.972,532.57 497.113,539.602 493.763,545.672C490.413,551.741 486.554,556.582 482.186,560.195C477.818,563.808 472.898,565.614 467.425,565.614L438.273,565.614L450.902,369.081ZM468.478,525.007C472.933,525.007 476.854,523.032 480.239,519.082C483.624,515.132 486.448,509.882 488.711,503.33C490.974,496.779 492.675,489.241 493.816,480.715C494.956,472.189 495.526,463.349 495.526,454.197C495.526,447.357 495.184,441.191 494.5,435.7C493.816,430.209 492.754,425.536 491.316,421.683C489.878,417.829 488.036,414.866 485.791,412.795C483.545,410.724 480.862,409.688 477.739,409.688L464.952,409.688L457.585,525.007L468.478,525.007Z" style="fill:white;fill-rule:nonzero;"/>
            </g>
        </g>
    </g>
</svg>
